<svg aria-label="Dots" role="img" width="84" height="84" viewBox="0 0 84 84" fill="none" xmlns="http://www.w3.org/2000/svg">
    <style type="text/css">
        .st0{fill: var(--secondary-color)}
    </style>
<circle class="st0" cx="2" cy="2" r="2"/>
<circle class="st0" cx="22" cy="2" r="2"/>
<circle class="st0" cx="42" cy="2" r="2"/>
<circle class="st0" cx="62" cy="2" r="2"/>
<circle class="st0" cx="82" cy="2" r="2"/>
<circle class="st0" cx="2" cy="22" r="2"/>
<circle class="st0" cx="22" cy="22" r="2"/>
<circle class="st0" cx="42" cy="22" r="2"/>
<circle class="st0" cx="62" cy="22" r="2"/>
<circle class="st0" cx="82" cy="22" r="2"/>
<circle class="st0" cx="2" cy="42" r="2"/>
<circle class="st0" cx="22" cy="42" r="2"/>
<circle class="st0" cx="42" cy="42" r="2"/>
<circle class="st0" cx="62" cy="42" r="2"/>
<circle class="st0" cx="82" cy="42" r="2"/>
<circle class="st0" cx="2" cy="62" r="2"/>
<circle class="st0" cx="22" cy="62" r="2"/>
<circle class="st0" cx="42" cy="62" r="2"/>
<circle class="st0" cx="62" cy="62" r="2"/>
<circle class="st0" cx="82" cy="62" r="2"/>
<circle class="st0" cx="2" cy="82" r="2"/>
<circle class="st0" cx="22" cy="82" r="2"/>
<circle class="st0" cx="42" cy="82" r="2"/>
<circle class="st0" cx="62" cy="82" r="2"/>
<circle class="st0" cx="82" cy="82" r="2"/>
</svg>
