<svg aria-label="GenIT" role="img" width="153" height="30" viewBox="0 0 153 30" fill="none" xmlns="http://www.w3.org/2000/svg">
<style type="text/css">
    .st0{fill: var(--secondary-color, white)}
</style>
<g clip-path="url(#clip0_2_3)">
<path d="M25.2399 16.567C25.0391 16.2197 24.5478 15.9344 24.1475 15.9344H17.8622C17.4618 15.9344 16.9693 16.2183 16.7697 16.567L13.6258 22.0204C13.4249 22.3677 13.4249 22.9369 13.6258 23.2842L16.7697 28.7376C16.9706 29.0863 17.4618 29.3702 17.8622 29.3702H24.1475C24.5478 29.3702 25.0404 29.0863 25.2399 28.739L28.3853 23.2855C28.5862 22.9382 28.5862 22.3691 28.3853 22.0218L25.2399 16.5683V16.567Z" fill="#787372"/>
<path d="M25.2399 0.781445C25.0391 0.434146 24.5478 0.148865 24.1475 0.148865H17.8622C17.4618 0.148865 16.9693 0.432768 16.7697 0.781445L13.6258 6.23486C13.4249 6.58354 13.4249 7.15135 13.6258 7.49864L16.7697 12.9521C16.9706 13.2994 17.4618 13.5846 17.8622 13.5846H24.1475C24.5478 13.5846 25.0404 13.3007 25.2399 12.9521L28.3853 7.49864C28.5862 7.15135 28.5862 6.58216 28.3853 6.23486L25.2399 0.781445Z" fill="#6CB33F"/>
<path class="st0" d="M11.7655 8.67421C11.5646 8.32691 11.0734 8.04163 10.673 8.04163H4.3864C3.98601 8.04163 3.49343 8.32553 3.29392 8.67421L0.149931 14.1262C-0.0509537 14.4735 -0.0509537 15.0427 0.149931 15.39L3.29392 20.8434C3.4948 21.1907 3.98601 21.476 4.3864 21.476H10.6716C11.072 21.476 11.5646 21.1921 11.7641 20.8434L14.9095 15.39C15.1104 15.0414 15.1104 14.4735 14.9095 14.1262L11.7641 8.67283L11.7655 8.67421Z"/>
<path class="st0" d="M106.824 30V6.49396H132.218C133.873 6.60835 135.149 7.17202 136.049 8.18635C136.947 9.20068 137.397 10.4796 137.397 12.0218V30H129.459V12.9865H114.848V30H106.825H106.824Z"/>
<path class="st0" d="M104.492 21.0433V12.5359C104.492 10.6932 103.775 9.22411 102.341 8.1326C100.907 7.03971 99.1009 6.49396 96.9187 6.49396H79.205C77.7067 6.5794 76.4587 7.09346 75.4612 8.03613C74.4622 8.9788 73.9628 10.3087 73.9628 12.0218V24.2792C73.9628 26.0088 74.7113 27.3939 76.2097 28.4358C77.7067 29.4791 79.483 30 81.5359 30H102.16V23.8506H81.9858V21.0433H104.492ZM81.939 15.8972V11.9405H96.444V15.8972H81.939Z"/>
<path class="st0" d="M69.9698 11.8564C68.8939 10.7938 67.6156 10.2619 66.1365 10.2619H57.0719V15.175H63.9502V23.5557H42.7788V6.7806H69.0947V0H42.5422C40.2114 0 38.3277 0.569184 36.8926 1.70617C35.3681 2.8597 34.6058 4.4005 34.6058 6.33131V24.0036C34.6058 25.6505 35.0613 27.0659 35.9735 28.2483C36.9449 29.4157 38.3126 29.9986 40.0765 29.9986H63.7149C65.8517 29.9986 67.6982 29.468 69.2516 28.4041C70.8353 27.2822 71.6278 25.8145 71.6278 24.0036V15.718C71.6278 14.2062 71.0747 12.919 69.9685 11.855L69.9698 11.8564Z"/>
<path d="M142.937 0.110229V8.77341H140.509V0.110229H142.937Z" fill="#6CB33F"/>
<path d="M144.594 0.110229H153V2.06861H149.978V8.77341H147.544V2.06861H144.594V0.110229Z" fill="#6CB33F"/>
</g>
<defs>
<clipPath id="clip0_2_3">
<rect width="153" height="30" fill="white"/>
</clipPath>
</defs>
</svg>
