<?xml version="1.0" encoding="UTF-8"?>
<svg aria-label="Puppeteer" role="img" width="800px" height="800px" viewBox="0 0 250 120" version="1.1" xmlns="http://www.w3.org/2000/svg" preserveAspectRatio="xMidYMid">
		<g>
				<polygon fill="#00D8A2" points="211.0954 132.638217 241.8364 117.797217 241.8364 102.957217 170.8134 69.0352167 241.8364 32.4642167 241.8364 18.1542167 212.1554 4.37321674 128.0594 46.2442167 42.5494 4.37321674 14.9884 19.2142167 14.9884 31.9342167 81.7704 68.5052167 14.9884 102.427217 14.9884 117.797217 43.6094 132.638217 128.4124 89.1762167">
				</polygon>
				<path d="M214.9494,126.584517 L214.9494,120.192517 L238.0894,108.201517 L238.0894,115.381517 L214.9494,126.584517 Z M16.8504,108.033517 L39.2104,120.869517 L39.2104,125.979517 L16.8504,114.667517 L16.8504,108.033517 Z M131.3834,81.0395167 L208.3024,119.044517 L208.3024,126.686517 L131.3834,87.2815167 L131.3834,81.0395167 Z M45.8574,120.156517 L124.7364,81.0475167 L124.7364,87.2795167 L45.8574,127.187517 L45.8574,120.156517 Z M101.7094,56.2515167 L21.8874,17.7135167 L42.5614,7.20651674 L128.0594,51.5295167 L212.1264,7.22551674 L233.5304,18.1885167 L155.6894,57.3625167 C152.5774,58.9285167 152.5824,63.3735167 155.6974,64.9325167 L232.7354,103.489517 L212.7674,113.836517 L128.0594,70.4335167 L41.8534,114.722517 L22.1644,103.419517 L101.7534,63.8575167 C104.9064,62.2905167 104.8804,57.7825167 101.7094,56.2515167 L101.7094,56.2515167 Z M17.8444,30.7705167 L17.8444,23.7565167 L92.2904,60.8985167 L84.7644,63.9055167 L17.8444,30.7705167 Z M170.4984,64.3185167 C170.3964,64.2565167 163.3684,60.9405167 163.3684,60.9405167 L238.0894,23.3355167 L238.0894,30.3805167 L170.4984,64.3185167 Z M177.9774,68.0015167 L243.6524,35.0255167 C244.3174,34.6915167 244.7374,34.0105167 244.7374,33.2665167 L244.7374,17.6635167 C244.7374,16.9245167 244.3234,16.2485167 243.6664,15.9115167 L213.0334,0.221516741 C212.4724,-0.0654832591 211.8074,-0.0664832591 211.2454,0.218516741 L128.9424,41.9825167 C128.3874,42.2645167 127.7314,42.2675167 127.1734,41.9885167 L43.4204,0.206516741 C42.8634,-0.0714832591 42.2064,-0.0684832591 41.6504,0.213516741 L11.2794,15.6475167 C10.6184,15.9835167 10.2024,16.6615167 10.2024,17.4025167 L10.2024,33.2575167 C10.2024,34.0065167 10.6274,34.6905167 11.2994,35.0225167 L77.2504,67.6065167 L11.6044,100.201517 C10.9474,100.528517 10.5254,101.193517 10.5124,101.928517 L10.2254,117.519517 C10.2114,118.274517 10.6314,118.970517 11.3044,119.311517 L42.8414,135.267517 C43.3984,135.548517 44.0554,135.549517 44.6134,135.269517 L127.1714,93.8145167 C127.7294,93.5335167 128.3884,93.5355167 128.9464,93.8185167 L210.4754,135.272517 C211.0234,135.550517 211.6704,135.557517 212.2244,135.289517 L243.6264,120.086517 C244.3054,119.757517 244.7374,119.069517 244.7374,118.315517 L244.7374,102.025517 C244.7374,101.274517 244.3104,100.589517 243.6364,100.258517 L177.9774,68.0015167 Z" fill="#000000">
				</path>
		</g>
</svg>
